Coordinates
version=1
nRows=21
nColumns=22
inDegrees=yes

Units are S.I. units (second, meters, Newtons, ...)
If the header above contains a line with 'inDegrees', this indicates whether rotational values are in degrees (yes) or radians (no).

endheader
time	pelvis_tilt	pelvis_list	pelvis_rotation	pelvis_tx	pelvis_ty	pelvis_tz	hip_flexion_r	hip_adduction_r	hip_rotation_r	knee_angle_r	ankle_angle_r	subtalar_angle_r	hip_flexion_l	hip_adduction_l	hip_rotation_l	knee_angle_l	ankle_angle_l	subtalar_angle_l	lumbar_extension	lumbar_bending	lumbar_rotation
      5.74000000	     -1.63258339	     -0.44532789	    304.10636217	     -0.78163520	      0.99957373	      0.64966427	     25.93896915	     -9.86775308	     -2.75662514	    -34.53754627	      7.57944134	      8.81896609	     -1.49033809	      7.14034134	     -0.61421659	    -14.32319528	     13.35412134	    -17.03953816	     -5.07095904	     -3.38268260	     -5.75780196
      5.75000000	     -1.37026055	     -0.46044291	    305.04117932	     -0.77723466	      0.99850092	      0.65639883	     26.26475157	     -9.95838654	     -2.13816960	    -32.89754071	      7.27665764	      9.23159399	     -2.23540414	      7.23497947	      0.21294196	    -14.26520747	     13.71169855	    -16.88618349	     -5.23479841	     -3.54936821	     -5.94405704
      5.76000000	     -1.09499319	     -0.42718921	    305.96382268	     -0.77287433	      0.99732567	      0.66318334	     26.56926186	    -10.08371028	     -1.53863401	    -31.20670398	      6.89172117	      9.70398793	     -2.95243431	      7.34225257	      0.98637863	    -14.20581303	     14.04181294	    -16.73742647	     -5.36428951	     -3.76233556	     -6.17016561
      5.77000000	     -0.81802490	     -0.39829438	    306.83257373	     -0.76858447	      0.99611100	      0.67007980	     26.80268972	    -10.18246815	     -0.90228076	    -29.44984221	      6.52508458	     10.39772982	     -3.68849101	      7.42376131	      1.68165046	    -14.13472692	     14.41499363	    -16.51671466	     -5.49990765	     -3.97945107	     -6.33873235
      5.78000000	     -0.53971967	     -0.33663678	    307.69137927	     -0.76428289	      0.99482588	      0.67701856	     26.99913806	    -10.31011128	     -0.29777718	    -27.64604489	      6.10940084	     11.13463586	     -4.40686946	      7.50502547	      2.33651443	    -14.05952761	     14.75964384	    -16.29033020	     -5.61146531	     -4.21742766	     -6.51997807
      5.79000000	     -0.26528963	     -0.25864533	    308.52980554	     -0.75996744	      0.99349769	      0.68402335	     27.14551247	    -10.45069814	      0.28872064	    -25.79803657	      5.67607339	     11.95058494	     -5.12347853	      7.57330476	      2.94847401	    -13.97305988	     15.09446667	    -16.04064149	     -5.70918239	     -4.46149781	     -6.69022073
      5.80000000	      0.00303057	     -0.16631606	    309.36503990	     -0.75560218	      0.99214741	      0.69107557	     27.23957535	    -10.61596347	      0.82684620	    -23.91545229	      5.22757636	     12.78548053	     -5.83810672	      7.62497458	      3.53112709	    -13.87490303	     15.37634130	    -15.78279155	     -5.79411659	     -4.70300585	     -6.86948039
      5.81000000	      0.25884619	     -0.06008056	    310.15940585	     -0.75123703	      0.99076576	      0.69822825	     27.30208077	    -10.78034788	      1.38020325	    -22.02198215	      4.80430516	     13.73269420	     -6.54493047	      7.65910607	      4.05138659	    -13.76770640	     15.67153439	    -15.48784142	     -5.85412291	     -4.94333874	     -7.00490855
      5.82000000	      0.49781251	      0.07118355	    310.92086649	     -0.74686240	      0.98934041	      0.70547790	     27.35378577	    -10.95575960	      1.93087584	    -20.14047909	      4.42695564	     14.74164170	     -7.22543048	      7.68173359	      4.53325277	    -13.66521743	     15.97664164	    -15.17333606	     -5.87625605	     -5.18756852	     -7.09979986
      5.83000000	      0.71821212	      0.21790716	    311.67324885	     -0.74241226	      0.98792260	      0.71282185	     27.37590213	    -11.15018404	      2.44225822	    -18.27238166	      4.08771317	     15.76448471	     -7.89644425	      7.68377719	      4.99161327	    -13.54736496	     16.21845545	    -14.84748592	     -5.86408603	     -5.42246354	     -7.20777375
      5.84000000	      0.92155002	      0.37110321	    312.42623369	     -0.73786951	      0.98654307	      0.72026967	     27.35859712	    -11.36293041	      2.89303105	    -16.43195213	      3.81658778	     16.75999725	     -8.55734811	      7.66133745	      5.45486529	    -13.43525332	     16.37207790	    -14.51220724	     -5.82576657	     -5.64728239	     -7.32637116
      5.85000000	      1.09575584	      0.54437028	    313.15336372	     -0.73325167	      0.98515898	      0.72785359	     27.34251994	    -11.58067672	      3.32750734	    -14.65780205	      3.64126577	     17.80626842	     -9.18523202	      7.61913271	      5.89354909	    -13.33371724	     16.53553252	    -14.14027278	     -5.73673139	     -5.86416093	     -7.42017266
      5.86000000	      1.24296840	      0.73188612	    313.87823005	     -0.72852672	      0.98381649	      0.73557035	     27.31692815	    -11.80997110	      3.69550921	    -12.96495157	      3.53990958	     18.79286679	     -9.78390342	      7.55264493	      6.33729561	    -13.24783880	     16.64263953	    -13.74559713	     -5.60481769	     -6.07256248	     -7.52884851
      5.87000000	      1.36436465	      0.93167344	    314.60255113	     -0.72368181	      0.98253116	      0.74340662	     27.28687921	    -12.04897804	      3.98326671	    -11.37971462	      3.48970799	     19.70163516	    -10.35081386	      7.46273921	      6.78993052	    -13.18429107	     16.69491809	    -13.32400458	     -5.43479208	     -6.26795399	     -7.64708870
      5.88000000	      1.45642654	      1.13872815	    315.31035386	     -0.71874587	      0.98130979	      0.75139070	     27.26640302	    -12.27806628	      4.19811087	     -9.93684751	      3.47012764	     20.57221974	    -10.88819990	      7.34428129	      7.23211205	    -13.13591975	     16.72970383	    -12.85617578	     -5.22842525	     -6.44735486	     -7.76006740
      5.89000000	      1.54106111	      1.34525696	    316.05283021	     -0.71368253	      0.98021531	      0.75944452	     27.22789958	    -12.52549628	      4.24381584	     -8.66258471	      3.48773053	     21.27148781	    -11.39891458	      7.20237053	      7.72410566	    -13.13914819	     16.64024148	    -12.38738908	     -5.02342723	     -6.62131226	     -7.91901097
      5.90000000	      1.60806371	      1.53840518	    316.77293228	     -0.70854376	      0.97924185	      0.76765557	     27.19399062	    -12.74195934	      4.20282744	     -7.59479148	      3.49756321	     21.99034236	    -11.90170932	      7.02627859	      8.20403732	    -13.15616858	     16.52774764	    -11.83878721	     -4.80563163	     -6.77174768	     -8.05912099
      5.91000000	      1.66327624	      1.72213978	    317.48723849	     -0.70337533	      0.97840313	      0.77598540	     27.16643198	    -12.93384060	      4.05682987	     -6.75190654	      3.50152805	     22.61973347	    -12.38163845	      6.81921378	      8.68135648	    -13.20797884	     16.33281531	    -11.25750316	     -4.59452704	     -6.91246706	     -8.18545804
      5.92000000	      1.72546008	      1.88902577	    318.20750000	     -0.69814579	      0.97772230	      0.78441376	     27.13329307	    -13.11159886	      3.79693587	     -6.16841243	      3.53374414	     23.13287491	    -12.86246810	      6.58814904	      9.17400116	    -13.28887145	     16.06422720	    -10.65167473	     -4.40982409	     -7.04531211	     -8.32136207
      5.93000000	      1.79508331	      2.06733280	    318.92370065	     -0.69291263	      0.97716732	      0.79291869	     27.13032708	    -13.28694228	      3.47071908	     -5.86037312	      3.53685276	     23.42221973	    -13.32018100	      6.35937603	      9.70246089	    -13.40069941	     15.70484080	    -10.13945494	     -4.23904043	     -7.19969555	     -8.43589063
      5.94000000	      1.87094633	      2.18530058	    319.58659605	     -0.68767955	      0.97679792	      0.80164988	     27.08664026	    -13.38615835	      3.19310134	     -5.79669272	      3.63023035	     23.78472440	    -13.81622760	      6.07253883	     10.10431492	    -13.51876159	     15.31384320	     -9.30750349	     -4.11576198	     -7.30823383	     -8.50561448
